<mxfile host="Electron" modified="2023-09-26T10:44:00.218Z" agent="Mozilla/5.0 (Macintosh; Intel Mac OS X 10_15_7) AppleWebKit/537.36 (KHTML, like Gecko) draw.io/21.6.8 Chrome/114.0.5735.289 Electron/25.5.0 Safari/537.36" etag="q2p9sGVZqxcieDYg7Eif" version="21.6.8" type="device" pages="2">
  <diagram name="dipendenza due" id="6m_Ce880SFPwr5nnB9WO">
    <mxGraphModel dx="2195" dy="688" grid="1" gridSize="10" guides="1" tooltips="1" connect="1" arrows="1" fold="1" page="1" pageScale="1" pageWidth="1169" pageHeight="1654" math="0" shadow="0">
      <root>
        <mxCell id="0" />
        <mxCell id="1" parent="0" />
        <mxCell id="DMsPAqVn6HpMZkrHA0Vp-10" style="edgeStyle=orthogonalEdgeStyle;rounded=0;orthogonalLoop=1;jettySize=auto;html=1;entryX=0;entryY=0.5;entryDx=0;entryDy=0;strokeColor=#006EAF;labelPosition=center;verticalLabelPosition=middle;align=center;verticalAlign=middle;fontSize=14;" parent="1" source="DMsPAqVn6HpMZkrHA0Vp-1" target="DMsPAqVn6HpMZkrHA0Vp-4" edge="1">
          <mxGeometry relative="1" as="geometry" />
        </mxCell>
        <mxCell id="DMsPAqVn6HpMZkrHA0Vp-1" value="&lt;b style=&quot;font-size: 14px;&quot;&gt;DOR&lt;/b&gt;" style="html=1;aspect=fixed;labelPosition=center;verticalLabelPosition=middle;align=center;verticalAlign=middle;textDirection=ltr;strokeColor=#006EAF;strokeWidth=2;fontSize=14;" parent="1" vertex="1">
          <mxGeometry x="-690" y="200" width="40" height="40" as="geometry" />
        </mxCell>
        <mxCell id="DMsPAqVn6HpMZkrHA0Vp-12" value="" style="edgeStyle=orthogonalEdgeStyle;rounded=0;orthogonalLoop=1;jettySize=auto;html=1;strokeColor=#006EAF;labelPosition=center;verticalLabelPosition=middle;align=center;verticalAlign=middle;fontSize=14;" parent="1" source="DMsPAqVn6HpMZkrHA0Vp-2" target="DMsPAqVn6HpMZkrHA0Vp-6" edge="1">
          <mxGeometry relative="1" as="geometry" />
        </mxCell>
        <mxCell id="DMsPAqVn6HpMZkrHA0Vp-2" value="&lt;b style=&quot;font-size: 14px;&quot;&gt;SD&lt;/b&gt;" style="whiteSpace=wrap;html=1;aspect=fixed;labelPosition=center;verticalLabelPosition=middle;align=center;verticalAlign=middle;strokeColor=#006EAF;strokeWidth=2;fontSize=14;" parent="1" vertex="1">
          <mxGeometry x="-410" y="200" width="40" height="40" as="geometry" />
        </mxCell>
        <mxCell id="DMsPAqVn6HpMZkrHA0Vp-14" value="" style="edgeStyle=orthogonalEdgeStyle;rounded=0;orthogonalLoop=1;jettySize=auto;html=1;strokeColor=#006EAF;labelPosition=center;verticalLabelPosition=middle;align=center;verticalAlign=middle;fontSize=14;" parent="1" source="DMsPAqVn6HpMZkrHA0Vp-3" target="DMsPAqVn6HpMZkrHA0Vp-7" edge="1">
          <mxGeometry relative="1" as="geometry" />
        </mxCell>
        <mxCell id="DMsPAqVn6HpMZkrHA0Vp-3" value="&lt;b style=&quot;font-size: 14px;&quot;&gt;PDL&lt;/b&gt;" style="html=1;aspect=fixed;labelPosition=center;verticalLabelPosition=middle;align=center;verticalAlign=middle;strokeColor=#006EAF;strokeWidth=2;fontSize=14;" parent="1" vertex="1">
          <mxGeometry x="-540" y="270" width="40" height="40" as="geometry" />
        </mxCell>
        <mxCell id="DMsPAqVn6HpMZkrHA0Vp-11" style="edgeStyle=orthogonalEdgeStyle;rounded=0;orthogonalLoop=1;jettySize=auto;html=1;strokeColor=#006EAF;labelPosition=center;verticalLabelPosition=middle;align=center;verticalAlign=middle;fontSize=14;" parent="1" source="DMsPAqVn6HpMZkrHA0Vp-4" target="DMsPAqVn6HpMZkrHA0Vp-2" edge="1">
          <mxGeometry relative="1" as="geometry" />
        </mxCell>
        <mxCell id="DMsPAqVn6HpMZkrHA0Vp-4" value="P1" style="ellipse;whiteSpace=wrap;html=1;aspect=fixed;labelPosition=center;verticalLabelPosition=middle;align=center;verticalAlign=middle;strokeColor=#006EAF;strokeWidth=2;fontSize=14;" parent="1" vertex="1">
          <mxGeometry x="-620" y="200" width="40" height="40" as="geometry" />
        </mxCell>
        <mxCell id="DMsPAqVn6HpMZkrHA0Vp-9" value="" style="edgeStyle=orthogonalEdgeStyle;rounded=0;orthogonalLoop=1;jettySize=auto;html=1;strokeColor=#006EAF;labelPosition=center;verticalLabelPosition=middle;align=center;verticalAlign=middle;fontSize=14;" parent="1" source="DMsPAqVn6HpMZkrHA0Vp-5" target="DMsPAqVn6HpMZkrHA0Vp-1" edge="1">
          <mxGeometry relative="1" as="geometry" />
        </mxCell>
        <mxCell id="DMsPAqVn6HpMZkrHA0Vp-5" value="P0" style="ellipse;whiteSpace=wrap;html=1;aspect=fixed;labelPosition=center;verticalLabelPosition=middle;align=center;verticalAlign=middle;strokeColor=#006EAF;strokeWidth=2;fontSize=14;" parent="1" vertex="1">
          <mxGeometry x="-760" y="200" width="40" height="40" as="geometry" />
        </mxCell>
        <mxCell id="DMsPAqVn6HpMZkrHA0Vp-6" value="P4" style="ellipse;whiteSpace=wrap;html=1;aspect=fixed;labelPosition=center;verticalLabelPosition=middle;align=center;verticalAlign=middle;strokeColor=#006EAF;strokeWidth=2;fontSize=14;" parent="1" vertex="1">
          <mxGeometry x="-340" y="200" width="40" height="40" as="geometry" />
        </mxCell>
        <mxCell id="DMsPAqVn6HpMZkrHA0Vp-7" value="P3" style="ellipse;whiteSpace=wrap;html=1;aspect=fixed;labelPosition=center;verticalLabelPosition=middle;align=center;verticalAlign=middle;strokeColor=#006EAF;strokeWidth=2;fontSize=14;" parent="1" vertex="1">
          <mxGeometry x="-470" y="270" width="40" height="40" as="geometry" />
        </mxCell>
        <mxCell id="DMsPAqVn6HpMZkrHA0Vp-13" value="" style="edgeStyle=orthogonalEdgeStyle;rounded=0;orthogonalLoop=1;jettySize=auto;html=1;strokeColor=#006EAF;labelPosition=center;verticalLabelPosition=middle;align=center;verticalAlign=middle;fontSize=14;" parent="1" source="DMsPAqVn6HpMZkrHA0Vp-8" target="DMsPAqVn6HpMZkrHA0Vp-3" edge="1">
          <mxGeometry relative="1" as="geometry" />
        </mxCell>
        <mxCell id="DMsPAqVn6HpMZkrHA0Vp-8" value="P2" style="ellipse;whiteSpace=wrap;html=1;aspect=fixed;labelPosition=center;verticalLabelPosition=middle;align=center;verticalAlign=middle;strokeColor=#006EAF;strokeWidth=2;fontSize=14;" parent="1" vertex="1">
          <mxGeometry x="-620" y="270" width="40" height="40" as="geometry" />
        </mxCell>
        <mxCell id="DMsPAqVn6HpMZkrHA0Vp-15" value="" style="endArrow=classic;html=1;rounded=0;entryX=0;entryY=0;entryDx=0;entryDy=0;exitX=1;exitY=1;exitDx=0;exitDy=0;strokeColor=#006EAF;labelPosition=center;verticalLabelPosition=middle;align=center;verticalAlign=middle;fontSize=14;" parent="1" source="DMsPAqVn6HpMZkrHA0Vp-1" target="DMsPAqVn6HpMZkrHA0Vp-8" edge="1">
          <mxGeometry width="50" height="50" relative="1" as="geometry">
            <mxPoint x="-640" y="240" as="sourcePoint" />
            <mxPoint x="-590" y="190" as="targetPoint" />
          </mxGeometry>
        </mxCell>
        <mxCell id="DMsPAqVn6HpMZkrHA0Vp-16" value="" style="endArrow=classic;html=1;rounded=0;entryX=0;entryY=1;entryDx=0;entryDy=0;strokeColor=#006EAF;labelPosition=center;verticalLabelPosition=middle;align=center;verticalAlign=middle;fontSize=14;" parent="1" source="DMsPAqVn6HpMZkrHA0Vp-7" target="DMsPAqVn6HpMZkrHA0Vp-2" edge="1">
          <mxGeometry width="50" height="50" relative="1" as="geometry">
            <mxPoint x="-340" y="310" as="sourcePoint" />
            <mxPoint x="-290" y="260" as="targetPoint" />
          </mxGeometry>
        </mxCell>
      </root>
    </mxGraphModel>
  </diagram>
  <diagram id="WlMG8gPdcsxfyNUx0Idf" name="dipendenza uno">
    <mxGraphModel dx="1026" dy="688" grid="1" gridSize="10" guides="1" tooltips="1" connect="1" arrows="1" fold="1" page="1" pageScale="1" pageWidth="1169" pageHeight="1654" math="0" shadow="0">
      <root>
        <mxCell id="0" />
        <mxCell id="1" parent="0" />
        <mxCell id="pxHFfCl9Hsd45hYbVGMw-2" value="&lt;b style=&quot;font-size: 14px;&quot;&gt;DOR&lt;/b&gt;" style="html=1;aspect=fixed;labelPosition=center;verticalLabelPosition=middle;align=center;verticalAlign=middle;textDirection=ltr;strokeColor=#006EAF;strokeWidth=2;fontSize=14;" parent="1" vertex="1">
          <mxGeometry x="80" y="320" width="40" height="40" as="geometry" />
        </mxCell>
        <mxCell id="pxHFfCl9Hsd45hYbVGMw-3" value="" style="edgeStyle=orthogonalEdgeStyle;rounded=0;orthogonalLoop=1;jettySize=auto;html=1;strokeColor=#006EAF;labelPosition=center;verticalLabelPosition=middle;align=center;verticalAlign=middle;fontSize=14;" parent="1" source="pxHFfCl9Hsd45hYbVGMw-4" target="pxHFfCl9Hsd45hYbVGMw-11" edge="1">
          <mxGeometry relative="1" as="geometry" />
        </mxCell>
        <mxCell id="pxHFfCl9Hsd45hYbVGMw-4" value="&lt;b style=&quot;font-size: 14px;&quot;&gt;SD&lt;/b&gt;" style="whiteSpace=wrap;html=1;aspect=fixed;labelPosition=center;verticalLabelPosition=middle;align=center;verticalAlign=middle;strokeColor=#006EAF;strokeWidth=2;fontSize=14;" parent="1" vertex="1">
          <mxGeometry x="320" y="320" width="40" height="40" as="geometry" />
        </mxCell>
        <mxCell id="pxHFfCl9Hsd45hYbVGMw-5" value="" style="edgeStyle=orthogonalEdgeStyle;rounded=0;orthogonalLoop=1;jettySize=auto;html=1;strokeColor=#006EAF;labelPosition=center;verticalLabelPosition=middle;align=center;verticalAlign=middle;fontSize=14;" parent="1" source="pxHFfCl9Hsd45hYbVGMw-6" target="pxHFfCl9Hsd45hYbVGMw-12" edge="1">
          <mxGeometry relative="1" as="geometry" />
        </mxCell>
        <mxCell id="pxHFfCl9Hsd45hYbVGMw-6" value="&lt;b style=&quot;font-size: 14px;&quot;&gt;PDL&lt;/b&gt;" style="html=1;aspect=fixed;labelPosition=center;verticalLabelPosition=middle;align=center;verticalAlign=middle;strokeColor=#006EAF;strokeWidth=2;fontSize=14;" parent="1" vertex="1">
          <mxGeometry x="200" y="320" width="40" height="40" as="geometry" />
        </mxCell>
        <mxCell id="pxHFfCl9Hsd45hYbVGMw-9" value="" style="edgeStyle=orthogonalEdgeStyle;rounded=0;orthogonalLoop=1;jettySize=auto;html=1;strokeColor=#006EAF;labelPosition=center;verticalLabelPosition=middle;align=center;verticalAlign=middle;fontSize=14;" parent="1" source="pxHFfCl9Hsd45hYbVGMw-10" target="pxHFfCl9Hsd45hYbVGMw-2" edge="1">
          <mxGeometry relative="1" as="geometry" />
        </mxCell>
        <mxCell id="pxHFfCl9Hsd45hYbVGMw-10" value="P0" style="ellipse;whiteSpace=wrap;html=1;aspect=fixed;labelPosition=center;verticalLabelPosition=middle;align=center;verticalAlign=middle;strokeColor=#006EAF;strokeWidth=2;fontSize=14;" parent="1" vertex="1">
          <mxGeometry x="20" y="320" width="40" height="40" as="geometry" />
        </mxCell>
        <mxCell id="pxHFfCl9Hsd45hYbVGMw-11" value="P3" style="ellipse;whiteSpace=wrap;html=1;aspect=fixed;labelPosition=center;verticalLabelPosition=middle;align=center;verticalAlign=middle;strokeColor=#006EAF;strokeWidth=2;fontSize=14;" parent="1" vertex="1">
          <mxGeometry x="380" y="320" width="40" height="40" as="geometry" />
        </mxCell>
        <mxCell id="pxHFfCl9Hsd45hYbVGMw-12" value="P2" style="ellipse;whiteSpace=wrap;html=1;aspect=fixed;labelPosition=center;verticalLabelPosition=middle;align=center;verticalAlign=middle;strokeColor=#006EAF;strokeWidth=2;fontSize=14;" parent="1" vertex="1">
          <mxGeometry x="260" y="320" width="40" height="40" as="geometry" />
        </mxCell>
        <mxCell id="pxHFfCl9Hsd45hYbVGMw-13" value="" style="edgeStyle=orthogonalEdgeStyle;rounded=0;orthogonalLoop=1;jettySize=auto;html=1;strokeColor=#006EAF;labelPosition=center;verticalLabelPosition=middle;align=center;verticalAlign=middle;fontSize=14;" parent="1" source="pxHFfCl9Hsd45hYbVGMw-14" target="pxHFfCl9Hsd45hYbVGMw-6" edge="1">
          <mxGeometry relative="1" as="geometry" />
        </mxCell>
        <mxCell id="pxHFfCl9Hsd45hYbVGMw-14" value="P1" style="ellipse;whiteSpace=wrap;html=1;aspect=fixed;labelPosition=center;verticalLabelPosition=middle;align=center;verticalAlign=middle;strokeColor=#006EAF;strokeWidth=2;fontSize=14;" parent="1" vertex="1">
          <mxGeometry x="140" y="320" width="40" height="40" as="geometry" />
        </mxCell>
        <mxCell id="pxHFfCl9Hsd45hYbVGMw-15" value="" style="endArrow=classic;html=1;rounded=0;entryX=0;entryY=0.5;entryDx=0;entryDy=0;exitX=1;exitY=0.5;exitDx=0;exitDy=0;strokeColor=#006EAF;labelPosition=center;verticalLabelPosition=middle;align=center;verticalAlign=middle;fontSize=14;" parent="1" source="pxHFfCl9Hsd45hYbVGMw-2" target="pxHFfCl9Hsd45hYbVGMw-14" edge="1">
          <mxGeometry width="50" height="50" relative="1" as="geometry">
            <mxPoint x="120" y="360" as="sourcePoint" />
            <mxPoint x="170" y="310" as="targetPoint" />
          </mxGeometry>
        </mxCell>
        <mxCell id="pxHFfCl9Hsd45hYbVGMw-16" value="" style="endArrow=classic;html=1;rounded=0;entryX=0;entryY=0.5;entryDx=0;entryDy=0;strokeColor=#006EAF;labelPosition=center;verticalLabelPosition=middle;align=center;verticalAlign=middle;fontSize=14;exitX=1;exitY=0.5;exitDx=0;exitDy=0;" parent="1" source="pxHFfCl9Hsd45hYbVGMw-12" target="pxHFfCl9Hsd45hYbVGMw-4" edge="1">
          <mxGeometry width="50" height="50" relative="1" as="geometry">
            <mxPoint x="420" y="430" as="sourcePoint" />
            <mxPoint x="470" y="380" as="targetPoint" />
          </mxGeometry>
        </mxCell>
      </root>
    </mxGraphModel>
  </diagram>
</mxfile>
